<svg id="Capa_1" data-name="Capa 1" xmlns="http://www.w3.org/2000/svg" xmlns:xlink="http://www.w3.org/1999/xlink" viewBox="0 0 266 83.34"><defs><style>.cls-1{fill:#383837;}.cls-2,.cls-3,.cls-4{fill-rule:evenodd;}.cls-2{fill:url(#Degradado_sin_nombre_13);}.cls-3{fill:url(#Degradado_sin_nombre_11);}.cls-4{fill:#19195c;}</style><linearGradient id="Degradado_sin_nombre_13" x1="0.39" y1="68.11" x2="46.69" y2="68.11" gradientUnits="userSpaceOnUse"><stop offset="0" stop-color="#d7781c"/><stop offset="0.26" stop-color="#d98a21"/><stop offset="0.79" stop-color="#deb92d"/><stop offset="1" stop-color="#e0cd32"/></linearGradient><linearGradient id="Degradado_sin_nombre_11" x1="3.04" y1="32.27" x2="47.35" y2="32.27" gradientUnits="userSpaceOnUse"><stop offset="0.26" stop-color="#1e843e"/><stop offset="0.36" stop-color="#3a8f3a"/><stop offset="0.57" stop-color="#6da234"/><stop offset="0.76" stop-color="#91b02f"/><stop offset="0.91" stop-color="#a8b92c"/><stop offset="1" stop-color="#b0bc2b"/></linearGradient></defs><path class="cls-1" d="M63.92,49.38,65.34,46a7.77,7.77,0,0,0,4.47,1.59c2.25,0,3.37-.79,3.37-2.36a3.34,3.34,0,0,0-.79-2.11,10.23,10.23,0,0,0-3.28-2.25,15.64,15.64,0,0,1-3.35-2,5.48,5.48,0,0,1-1.33-1.91A6.21,6.21,0,0,1,64,34.42a5.34,5.34,0,0,1,1.84-4.16,6.77,6.77,0,0,1,4.71-1.65c2.49,0,4.33.47,5.49,1.4l-1.16,3.3a7.24,7.24,0,0,0-4.26-1.44,2.84,2.84,0,0,0-2.06.7,2.42,2.42,0,0,0-.73,1.82c0,1.24,1.37,2.52,4.12,3.86a13.75,13.75,0,0,1,3.12,2,6,6,0,0,1,1.46,2.08,6.66,6.66,0,0,1,.5,2.65,5.34,5.34,0,0,1-2.07,4.32A8.5,8.5,0,0,1,69.38,51,10,10,0,0,1,63.92,49.38Z"/><path class="cls-1" d="M90.35,50.59V49.26a6.41,6.41,0,0,1-2.16,1.14,7.88,7.88,0,0,1-2.52.47c-3.66,0-5.5-1.94-5.5-5.84V34.79h3.69v10c0,2,.91,3,2.73,3a4.48,4.48,0,0,0,2.33-.65,3.34,3.34,0,0,0,1.43-1.5V34.79H94v15.8Z"/><path class="cls-1" d="M101.4,50.18v6.59H97.72v-22h3.68v1.06a4.68,4.68,0,0,1,3.41-1.36q7.55,0,7.55,8.32a8.11,8.11,0,0,1-2.09,6,7.7,7.7,0,0,1-5.7,2.09A7.22,7.22,0,0,1,101.4,50.18Zm0-11.53V47a3.63,3.63,0,0,0,2.35.81,4.72,4.72,0,0,0,3.66-1.22,5.57,5.57,0,0,0,1.12-3.84c0-1.86-.37-3.18-1.11-3.94a5,5,0,0,0-3.66-1.14A3.25,3.25,0,0,0,101.4,38.65Z"/><path class="cls-1" d="M129.7,43.81H118.42a4,4,0,0,0,1.3,2.93,4.67,4.67,0,0,0,3.21,1,5.2,5.2,0,0,0,3.83-1.31l1.43,2.81c-1.29,1.06-3.23,1.58-5.8,1.58a7.7,7.7,0,0,1-5.72-2.11,8,8,0,0,1-2.1-5.91,8.16,8.16,0,0,1,2.31-6,8.08,8.08,0,0,1,11.05-.27A7.05,7.05,0,0,1,130,41.76,10.79,10.79,0,0,1,129.7,43.81ZM118.55,41h7.76a3.48,3.48,0,0,0-3.84-3.47Q119.32,37.57,118.55,41Z"/><path class="cls-1" d="M142.08,38.22a3.88,3.88,0,0,0-2.16-.65,2.93,2.93,0,0,0-2.28,1.17,4.18,4.18,0,0,0-1,2.84v9H133V34.79h3.68v1.44a5.26,5.26,0,0,1,4.12-1.74,5.84,5.84,0,0,1,2.89.58Z"/><path class="cls-1" d="M144.88,49.56l1.32-2.93a5.85,5.85,0,0,0,3.73,1.31c1.43,0,2.15-.51,2.15-1.54a1.88,1.88,0,0,0-.65-1.47,9.88,9.88,0,0,0-2.52-1.36q-4.08-1.7-4.08-4.74a3.75,3.75,0,0,1,1.56-3.2,6.59,6.59,0,0,1,4-1.14A10,10,0,0,1,155,35.6L154,38.46a5,5,0,0,0-3.36-1c-1.29,0-1.93.51-1.93,1.53a1.38,1.38,0,0,0,.63,1.09,13.3,13.3,0,0,0,2.72,1.3,7,7,0,0,1,3,2,4.39,4.39,0,0,1,.91,2.81,4.12,4.12,0,0,1-1.63,3.46,7,7,0,0,1-4.43,1.26,9.67,9.67,0,0,1-2.53-.26A12.55,12.55,0,0,1,144.88,49.56Z"/><path class="cls-1" d="M173,43.81H161.68A4,4,0,0,0,163,46.74a4.71,4.71,0,0,0,3.22,1A5.2,5.2,0,0,0,170,46.48l1.43,2.81c-1.29,1.06-3.23,1.58-5.81,1.58a7.69,7.69,0,0,1-5.71-2.11,8,8,0,0,1-2.1-5.91,8.16,8.16,0,0,1,2.31-6,8.08,8.08,0,0,1,11.05-.27,7.05,7.05,0,0,1,2.08,5.22A10.79,10.79,0,0,1,173,43.81ZM161.81,41h7.76a3.48,3.48,0,0,0-3.84-3.47Q162.58,37.57,161.81,41Z"/><path class="cls-1" d="M185.34,38.22a3.89,3.89,0,0,0-2.17-.65,2.92,2.92,0,0,0-2.27,1.17,4.18,4.18,0,0,0-1,2.84v9h-3.68V34.79h3.68v1.44A5.23,5.23,0,0,1,184,34.49a5.85,5.85,0,0,1,2.9.58Z"/><path class="cls-1" d="M195.66,50.87h-1.32L187.2,34.79h4L195,44.43l4.06-9.64H203Z"/><path class="cls-1" d="M206,50.58V37.81h-2v-3h5.75V50.58Zm1.9-21.91a2.13,2.13,0,1,1-1.51.62A2.08,2.08,0,0,1,207.93,28.67Z"/><path class="cls-1" d="M226.43,36l-1.57,2.76a4.87,4.87,0,0,0-3.48-1.23,4.16,4.16,0,0,0-3.31,1.4,5.64,5.64,0,0,0-1.22,3.85q0,5,4.73,5a5.31,5.31,0,0,0,3.61-1.36l1.36,2.91a9.41,9.41,0,0,1-2.81,1.27,13.82,13.82,0,0,1-2.84.26,7.78,7.78,0,0,1-5.77-2.13A8,8,0,0,1,213,42.82a8.12,8.12,0,0,1,2.31-6,8.57,8.57,0,0,1,6.31-2.3A7.68,7.68,0,0,1,226.43,36Z"/><path class="cls-1" d="M230.49,50.58V37.81h-2v-3h5.75V50.58Zm1.9-21.91a2.13,2.13,0,1,1-1.51.62A2.08,2.08,0,0,1,232.39,28.67Z"/><path class="cls-1" d="M237.48,42.64a8.37,8.37,0,0,1,2.08-5.88,8,8,0,0,1,11.1-.09,8.53,8.53,0,0,1,2,6,8.61,8.61,0,0,1-2,6,8.06,8.06,0,0,1-11.14,0A8.63,8.63,0,0,1,237.48,42.64Zm3.83,0q0,5.22,3.76,5.22a3.25,3.25,0,0,0,2.74-1.35,6.42,6.42,0,0,0,1-3.87q0-5.14-3.75-5.14a3.24,3.24,0,0,0-2.74,1.36A6.16,6.16,0,0,0,241.31,42.64Z"/><path class="cls-1" d="M254.62,49.56l1.32-2.93a5.85,5.85,0,0,0,3.73,1.31c1.43,0,2.15-.51,2.15-1.54a1.88,1.88,0,0,0-.65-1.47,9.88,9.88,0,0,0-2.52-1.36q-4.08-1.7-4.08-4.74a3.75,3.75,0,0,1,1.56-3.2,6.59,6.59,0,0,1,4-1.14,10,10,0,0,1,4.63,1.11l-1.06,2.86a5,5,0,0,0-3.36-1c-1.29,0-1.93.51-1.93,1.53a1.38,1.38,0,0,0,.63,1.09,13.3,13.3,0,0,0,2.72,1.3,7,7,0,0,1,3,2,4.39,4.39,0,0,1,.91,2.81A4.12,4.12,0,0,1,264,49.61a7,7,0,0,1-4.43,1.26,9.54,9.54,0,0,1-2.52-.26A12.34,12.34,0,0,1,254.62,49.56Z"/><path class="cls-1" d="M63.27,66.61l.62-1.51a3.38,3.38,0,0,0,2,.7c1,0,1.49-.34,1.49-1a1.48,1.48,0,0,0-.35-.93,4.75,4.75,0,0,0-1.45-1,7.08,7.08,0,0,1-1.47-.9,2.44,2.44,0,0,1-.58-.84A2.67,2.67,0,0,1,63.28,60a2.33,2.33,0,0,1,.81-1.82,3,3,0,0,1,2.07-.73,3.79,3.79,0,0,1,2.42.62l-.51,1.45a3.13,3.13,0,0,0-1.87-.64,1.24,1.24,0,0,0-.91.31A1.08,1.08,0,0,0,65,60c0,.55.6,1.11,1.81,1.7a6,6,0,0,1,1.37.86,2.51,2.51,0,0,1,.64.91A2.94,2.94,0,0,1,69,64.66a2.34,2.34,0,0,1-.91,1.9,3.76,3.76,0,0,1-2.44.74A4.31,4.31,0,0,1,63.27,66.61Z"/><path class="cls-1" d="M74.88,67.15v-.59a2.85,2.85,0,0,1-.94.5,3.47,3.47,0,0,1-1.11.21c-1.61,0-2.42-.86-2.42-2.57V60.2H72v4.38c0,.89.4,1.33,1.2,1.33a1.91,1.91,0,0,0,1-.28,1.41,1.41,0,0,0,.63-.66V60.2H76.5v7Z"/><path class="cls-1" d="M79.74,67v2.9H78.12V60.2h1.62v.46a2.06,2.06,0,0,1,1.5-.59c2.21,0,3.32,1.21,3.32,3.65a3.54,3.54,0,0,1-.92,2.63,3.38,3.38,0,0,1-2.5.92A3.09,3.09,0,0,1,79.74,67Zm0-5.07v3.65a1.6,1.6,0,0,0,1,.36,2.11,2.11,0,0,0,1.61-.53,2.44,2.44,0,0,0,.49-1.69,2.51,2.51,0,0,0-.48-1.74,2.2,2.2,0,0,0-1.61-.5A1.45,1.45,0,0,0,79.74,61.89Z"/><path class="cls-1" d="M92.18,64.16h-5a1.7,1.7,0,0,0,.57,1.29,2,2,0,0,0,1.41.46,2.28,2.28,0,0,0,1.68-.57l.63,1.23a3.94,3.94,0,0,1-2.55.7,3.37,3.37,0,0,1-2.51-.93,3.52,3.52,0,0,1-.93-2.6,3.6,3.6,0,0,1,1-2.66A3.57,3.57,0,0,1,91.41,61a3.07,3.07,0,0,1,.91,2.29A4,4,0,0,1,92.18,64.16Zm-4.9-1.22h3.41A1.52,1.52,0,0,0,89,61.42,1.67,1.67,0,0,0,87.28,62.94Z"/><path class="cls-1" d="M97.63,61.71a1.71,1.71,0,0,0-.95-.29,1.28,1.28,0,0,0-1,.51,1.82,1.82,0,0,0-.44,1.25v4H93.62V60.2h1.62v.63a2.28,2.28,0,0,1,1.81-.76,2.6,2.6,0,0,1,1.27.25Z"/><path class="cls-1" d="M99.73,67.14V61.52h-.89V60.2h2.53v6.94Zm.83-9.63a.94.94,0,0,1,.67.27,1,1,0,0,1,0,1.33,1,1,0,0,1-.67.28.91.91,0,0,1-.66-.28.93.93,0,0,1,0-1.33A.9.9,0,0,1,100.56,57.51Z"/><path class="cls-1" d="M107.72,67.14v-4a2,2,0,0,0-.34-1.3,1.38,1.38,0,0,0-1.11-.41,1.93,1.93,0,0,0-1.4.7v5h-1.62V60.2h1.17l.3.64a2.44,2.44,0,0,1,2-.77,2.57,2.57,0,0,1,2,.74,2.83,2.83,0,0,1,.72,2.07v4.26Z"/><path class="cls-1" d="M111.34,61.5h-.81V60.2h.81V58.78l1.62-.59v2h1.9v1.3H113v3a1.73,1.73,0,0,0,.23,1,1,1,0,0,0,.82.31,2,2,0,0,0,1.09-.32v1.49a5.18,5.18,0,0,1-1.61.2,2.13,2.13,0,0,1-1.6-.59,2.34,2.34,0,0,1-.55-1.67Z"/><path class="cls-1" d="M122.55,64.16h-5a1.74,1.74,0,0,0,.57,1.29,2.06,2.06,0,0,0,1.42.46,2.28,2.28,0,0,0,1.68-.57l.63,1.23a3.94,3.94,0,0,1-2.55.7,3.41,3.41,0,0,1-2.52-.93,3.56,3.56,0,0,1-.92-2.6,3.64,3.64,0,0,1,1-2.66,3.35,3.35,0,0,1,2.44-1,3.31,3.31,0,0,1,2.42.9,3.07,3.07,0,0,1,.92,2.29A4.62,4.62,0,0,1,122.55,64.16Zm-4.9-1.22h3.41a1.52,1.52,0,0,0-1.69-1.52A1.67,1.67,0,0,0,117.65,62.94Z"/><path class="cls-1" d="M128.45,67.14v-4a2,2,0,0,0-.34-1.3,1.38,1.38,0,0,0-1.11-.41,1.76,1.76,0,0,0-.76.2,1.93,1.93,0,0,0-.64.5v5H124V60.2h1.17l.3.64a2.44,2.44,0,0,1,2-.77,2.56,2.56,0,0,1,1.95.74,2.83,2.83,0,0,1,.72,2.07v4.26Z"/><path class="cls-1" d="M136.29,67.14v-.42a1.76,1.76,0,0,1-.68.38,3,3,0,0,1-1,.17,3,3,0,0,1-2.29-.92,3.73,3.73,0,0,1-.83-2.57,3.82,3.82,0,0,1,.95-2.68,3.34,3.34,0,0,1,3.84-.71V57.61l1.62-.39v9.92Zm0-5.28a1.71,1.71,0,0,0-1.08-.42,1.91,1.91,0,0,0-1.5.59,2.52,2.52,0,0,0-.53,1.71,1.88,1.88,0,0,0,2.09,2.16,1.57,1.57,0,0,0,.57-.14,1.08,1.08,0,0,0,.45-.28Z"/><path class="cls-1" d="M145.73,64.16h-5a1.74,1.74,0,0,0,.57,1.29,2,2,0,0,0,1.41.46,2.32,2.32,0,0,0,1.69-.57l.63,1.23a4,4,0,0,1-2.56.7,3.38,3.38,0,0,1-2.51-.93,3.52,3.52,0,0,1-.92-2.6,3.6,3.6,0,0,1,1-2.66A3.57,3.57,0,0,1,145,61a3.07,3.07,0,0,1,.91,2.29A4.43,4.43,0,0,1,145.73,64.16Zm-4.9-1.22h3.41a1.53,1.53,0,0,0-1.69-1.52A1.67,1.67,0,0,0,140.83,62.94Z"/><path class="cls-1" d="M151.63,67.14v-4a2,2,0,0,0-.34-1.3,1.39,1.39,0,0,0-1.12-.41,1.94,1.94,0,0,0-1.39.7v5h-1.62V60.2h1.17l.29.64a2.47,2.47,0,0,1,2-.77,2.57,2.57,0,0,1,1.95.74,2.83,2.83,0,0,1,.72,2.07v4.26Z"/><path class="cls-1" d="M160.44,60.75,159.75,62a2.13,2.13,0,0,0-1.53-.54,1.84,1.84,0,0,0-1.45.61,2.5,2.5,0,0,0-.54,1.7c0,1.46.69,2.18,2.08,2.18a2.39,2.39,0,0,0,1.59-.59l.6,1.27a4.17,4.17,0,0,1-1.24.56,5.7,5.7,0,0,1-1.25.12,3.4,3.4,0,0,1-2.54-.94,3.52,3.52,0,0,1-.93-2.6,3.56,3.56,0,0,1,1-2.65,3.76,3.76,0,0,1,2.78-1A3.31,3.31,0,0,1,160.44,60.75Z"/><path class="cls-1" d="M162.23,67.14V61.52h-.89V60.2h2.53v6.94Zm.83-9.63a.94.94,0,0,1,.67.27,1,1,0,0,1,0,1.33,1,1,0,0,1-.67.28.91.91,0,0,1-.66-.28.93.93,0,0,1,0-1.33A.9.9,0,0,1,163.06,57.51Z"/><path class="cls-1" d="M169.62,66.45a1.66,1.66,0,0,1-.77.59,3,3,0,0,1-1.15.23,2.62,2.62,0,0,1-1.76-.56,2,2,0,0,1-.64-1.59,2.23,2.23,0,0,1,.9-1.89,4.25,4.25,0,0,1,2.57-.68,2.66,2.66,0,0,1,.68.1c0-.82-.52-1.23-1.55-1.23a3.34,3.34,0,0,0-1.53.31L166,60.47a4.53,4.53,0,0,1,2-.4,3.25,3.25,0,0,1,2.33.72,3.84,3.84,0,0,1,.74,2.74V65c0,.93.18,1.51.55,1.75a.9.9,0,0,1-.44.43,2,2,0,0,1-.57.08A.93.93,0,0,1,170,67,1.31,1.31,0,0,1,169.62,66.45Zm-.16-2.58a4,4,0,0,0-.62-.08c-1.28,0-1.92.42-1.92,1.25,0,.63.36.94,1.08.94a1.29,1.29,0,0,0,1.46-1.46Z"/><path class="cls-1" d="M181.29,67.14v-.42a1.69,1.69,0,0,1-.68.38,3,3,0,0,1-1,.17,2.92,2.92,0,0,1-2.28-.92,3.68,3.68,0,0,1-.84-2.57,3.78,3.78,0,0,1,1-2.68,3.33,3.33,0,0,1,3.83-.71V57.61l1.62-.39v9.92Zm0-5.28a1.67,1.67,0,0,0-1.08-.42,1.91,1.91,0,0,0-1.5.59,2.52,2.52,0,0,0-.52,1.71c0,1.44.69,2.16,2.09,2.16a1.67,1.67,0,0,0,.57-.14,1,1,0,0,0,.44-.28Z"/><path class="cls-1" d="M190.73,64.16h-5a1.74,1.74,0,0,0,.57,1.29,2.06,2.06,0,0,0,1.42.46,2.28,2.28,0,0,0,1.68-.57l.63,1.23a3.94,3.94,0,0,1-2.55.7,3.41,3.41,0,0,1-2.52-.93,3.56,3.56,0,0,1-.92-2.6,3.64,3.64,0,0,1,1-2.66,3.35,3.35,0,0,1,2.44-1A3.29,3.29,0,0,1,190,61a3.07,3.07,0,0,1,.92,2.29A4.62,4.62,0,0,1,190.73,64.16Zm-4.9-1.22h3.41a1.52,1.52,0,0,0-1.68-1.52A1.67,1.67,0,0,0,185.83,62.94Z"/><path class="cls-1" d="M195.81,66.61l.62-1.51a3.41,3.41,0,0,0,2,.7c1,0,1.48-.34,1.48-1a1.48,1.48,0,0,0-.35-.93,4.67,4.67,0,0,0-1.44-1,6.81,6.81,0,0,1-1.47-.9,2.46,2.46,0,0,1-.59-.84,2.85,2.85,0,0,1-.2-1.08,2.36,2.36,0,0,1,.8-1.82,3,3,0,0,1,2.08-.73,3.78,3.78,0,0,1,2.41.62l-.51,1.45a3.11,3.11,0,0,0-1.87-.64,1.26,1.26,0,0,0-.91.31,1.08,1.08,0,0,0-.32.8c0,.55.61,1.11,1.81,1.7a5.85,5.85,0,0,1,1.38.86,2.64,2.64,0,0,1,.64.91,3.13,3.13,0,0,1,.22,1.17,2.37,2.37,0,0,1-.91,1.9,3.78,3.78,0,0,1-2.44.74A4.32,4.32,0,0,1,195.81,66.61Z"/><path class="cls-1" d="M209.15,64.16h-5a1.74,1.74,0,0,0,.57,1.29,2.06,2.06,0,0,0,1.42.46,2.29,2.29,0,0,0,1.68-.57l.63,1.23a3.94,3.94,0,0,1-2.55.7,3.41,3.41,0,0,1-2.52-.93,3.56,3.56,0,0,1-.92-2.6,3.64,3.64,0,0,1,1-2.66,3.35,3.35,0,0,1,2.44-1,3.31,3.31,0,0,1,2.42.9,3.07,3.07,0,0,1,.92,2.29A4.62,4.62,0,0,1,209.15,64.16Zm-4.9-1.22h3.41A1.52,1.52,0,0,0,206,61.42,1.67,1.67,0,0,0,204.25,62.94Z"/><path class="cls-1" d="M214.6,61.71a1.72,1.72,0,0,0-1-.29,1.3,1.3,0,0,0-1,.51,1.87,1.87,0,0,0-.44,1.25v4h-1.62V60.2h1.62v.63a2.31,2.31,0,0,1,1.81-.76,2.55,2.55,0,0,1,1.27.25Z"/><path class="cls-1" d="M219.13,67.27h-.58l-3.14-7.07h1.78l1.66,4.24,1.78-4.24h1.72Z"/><path class="cls-1" d="M223.69,67.14V61.52h-.89V60.2h2.53v6.94Zm.84-9.63a.94.94,0,0,1,.94.94.88.88,0,0,1-.28.66.91.91,0,0,1-.66.28,1,1,0,0,1-.67-.28,1,1,0,0,1,0-1.33A.94.94,0,0,1,224.53,57.51Z"/><path class="cls-1" d="M232.66,60.75,232,62a2.13,2.13,0,0,0-1.53-.54A1.84,1.84,0,0,0,229,62a2.5,2.5,0,0,0-.54,1.7c0,1.46.7,2.18,2.08,2.18a2.39,2.39,0,0,0,1.59-.59l.6,1.27a4.06,4.06,0,0,1-1.24.56,5.7,5.7,0,0,1-1.25.12,3.4,3.4,0,0,1-2.54-.94,3.52,3.52,0,0,1-.92-2.6,3.56,3.56,0,0,1,1-2.65,3.76,3.76,0,0,1,2.78-1A3.31,3.31,0,0,1,232.66,60.75Z"/><path class="cls-1" d="M234.45,67.14V61.52h-.89V60.2h2.53v6.94Zm.83-9.63a.94.94,0,0,1,.67.27,1,1,0,0,1,0,1.33,1,1,0,0,1-.67.28.91.91,0,0,1-.66-.28.93.93,0,0,1,0-1.33A.9.9,0,0,1,235.28,57.51Z"/><path class="cls-1" d="M237.52,63.65a3.7,3.7,0,0,1,.92-2.59,3.14,3.14,0,0,1,2.42-1,3.18,3.18,0,0,1,2.46,1,4.37,4.37,0,0,1,0,5.26,3.14,3.14,0,0,1-2.44,1,3.1,3.1,0,0,1-2.46-1A3.8,3.8,0,0,1,237.52,63.65Zm1.69,0c0,1.53.55,2.3,1.65,2.3a1.4,1.4,0,0,0,1.2-.6,2.77,2.77,0,0,0,.45-1.7c0-1.51-.55-2.26-1.65-2.26a1.45,1.45,0,0,0-1.21.59A2.74,2.74,0,0,0,239.21,63.65Z"/><path class="cls-1" d="M245.06,66.69l.58-1.29a2.53,2.53,0,0,0,1.64.58c.63,0,.94-.23.94-.68a.8.8,0,0,0-.28-.64,4.32,4.32,0,0,0-1.11-.6c-1.2-.5-1.8-1.19-1.8-2.09a1.63,1.63,0,0,1,.69-1.4,2.87,2.87,0,0,1,1.76-.5,4.43,4.43,0,0,1,2,.48l-.46,1.26a2.24,2.24,0,0,0-1.48-.45c-.57,0-.85.22-.85.67a.59.59,0,0,0,.28.48,5.73,5.73,0,0,0,1.19.57,3,3,0,0,1,1.32.88,2,2,0,0,1,.4,1.23,1.81,1.81,0,0,1-.72,1.52,3.12,3.12,0,0,1-1.95.56,4.17,4.17,0,0,1-1.11-.12A5.08,5.08,0,0,1,245.06,66.69Z"/><path class="cls-1" d="M65.44,79.31V82.8H63.76V73.31c1.12,0,1.78-.07,2-.07a6.08,6.08,0,0,1,3.29.69,2.41,2.41,0,0,1,1,2.16q0,3.25-3.85,3.26C66,79.35,65.76,79.34,65.44,79.31Zm0-4.54v3c.29,0,.51,0,.68,0a2.85,2.85,0,0,0,1.68-.39,1.43,1.43,0,0,0,.54-1.25c0-1-.8-1.48-2.38-1.48A4.41,4.41,0,0,0,65.44,74.77Z"/><path class="cls-1" d="M75.93,82.81v-.58a3.11,3.11,0,0,1-1,.5,3.63,3.63,0,0,1-1.11.2c-1.61,0-2.42-.85-2.42-2.56V75.86h1.62v4.38c0,.89.4,1.34,1.2,1.34a2,2,0,0,0,1-.29,1.52,1.52,0,0,0,.63-.66V75.86h1.62v7ZM76.2,73l-1.47,1.9H73.5L74.6,73Z"/><path class="cls-1" d="M80.45,82.42l-.37.51h-.91V73.27l1.62-.39v3.25a2.6,2.6,0,0,1,1.41-.4,3.27,3.27,0,0,1,2.46,1,3.41,3.41,0,0,1,.93,2.47,3.9,3.9,0,0,1-.94,2.76,3.3,3.3,0,0,1-2.54,1A2.71,2.71,0,0,1,80.45,82.42Zm.34-4.91v3.63a1.2,1.2,0,0,0,1,.42A2.14,2.14,0,0,0,83.42,81a2.7,2.7,0,0,0,.49-1.78c0-1.41-.68-2.12-2-2.12A1.41,1.41,0,0,0,80.79,77.51Z"/><path class="cls-1" d="M87.3,73.27l1.62-.39v7.81c0,.86.25,1.37.76,1.53a1.34,1.34,0,0,1-1.28.71c-.73,0-1.1-.51-1.1-1.53Z"/><path class="cls-1" d="M91.37,82.8V77.19h-.89V75.86H93V82.8Zm.84-9.63a.91.91,0,0,1,.66.27,1,1,0,0,1,.28.67.91.91,0,0,1-.28.66.93.93,0,0,1-1.33,0,.91.91,0,0,1-.28-.66,1,1,0,0,1,.28-.67A.92.92,0,0,1,92.21,73.17Z"/><path class="cls-1" d="M100.34,76.41l-.69,1.21a2.13,2.13,0,0,0-1.53-.54,1.84,1.84,0,0,0-1.46.62,2.52,2.52,0,0,0-.53,1.69c0,1.46.69,2.19,2.08,2.19A2.35,2.35,0,0,0,99.8,81l.59,1.28a4.28,4.28,0,0,1-1.23.56,6.45,6.45,0,0,1-1.25.11A3.44,3.44,0,0,1,95.37,82a4,4,0,0,1,.09-5.26,3.77,3.77,0,0,1,2.77-1A3.4,3.4,0,0,1,100.34,76.41Z"/><path class="cls-1" d="M101.24,79.31a3.66,3.66,0,0,1,.91-2.58,3.53,3.53,0,0,1,4.88,0A4.35,4.35,0,0,1,107,82a3.55,3.55,0,0,1-4.91,0A3.83,3.83,0,0,1,101.24,79.31Zm1.68,0c0,1.53.55,2.3,1.66,2.3a1.43,1.43,0,0,0,1.2-.6,2.82,2.82,0,0,0,.44-1.7c0-1.5-.55-2.26-1.64-2.26a1.43,1.43,0,0,0-1.21.6A2.71,2.71,0,0,0,102.92,79.31Z"/><path class="cls-1" d="M108.78,82.36l.57-1.29a2.6,2.6,0,0,0,1.64.57c.63,0,1-.22,1-.67a.83.83,0,0,0-.29-.65,4.39,4.39,0,0,0-1.1-.6c-1.2-.49-1.8-1.19-1.8-2.08a1.66,1.66,0,0,1,.69-1.41,2.9,2.9,0,0,1,1.75-.5,4.38,4.38,0,0,1,2,.49l-.47,1.25a2.22,2.22,0,0,0-1.48-.45c-.56,0-.85.22-.85.67a.62.62,0,0,0,.28.48,5.52,5.52,0,0,0,1.2.58,3.05,3.05,0,0,1,1.31.87,1.92,1.92,0,0,1,.4,1.24,1.84,1.84,0,0,1-.71,1.52,3.12,3.12,0,0,1-2,.55,4.7,4.7,0,0,1-1.11-.11A5.68,5.68,0,0,1,108.78,82.36Z"/><path class="cls-1" d="M121.13,82.8H119V73.31c1.34,0,2.19-.07,2.53-.07a4.44,4.44,0,0,1,3.29,1.22,4.35,4.35,0,0,1,1.22,3.22C126.06,81.1,124.41,82.8,121.13,82.8Zm-.43-8v6.49c.28,0,.57,0,.89,0a2.4,2.4,0,0,0,2-.93,4.14,4.14,0,0,0,.72-2.6c0-2-1-3-2.83-3C121.29,74.74,121,74.75,120.7,74.78Z"/><path class="cls-1" d="M127,79.31a3.67,3.67,0,0,1,.92-2.58,3.1,3.1,0,0,1,2.42-1,3.18,3.18,0,0,1,2.46,1,4.37,4.37,0,0,1,0,5.26,3.54,3.54,0,0,1-4.9,0A3.78,3.78,0,0,1,127,79.31Zm1.68,0c0,1.53.56,2.3,1.66,2.3a1.43,1.43,0,0,0,1.2-.6,2.75,2.75,0,0,0,.45-1.7c0-1.5-.55-2.26-1.65-2.26a1.43,1.43,0,0,0-1.21.6A2.71,2.71,0,0,0,128.68,79.31Z"/><path class="cls-1" d="M143,82.8V78.45c0-.91-.41-1.37-1.23-1.37a1.34,1.34,0,0,0-.7.22,1.28,1.28,0,0,0-.47.49v5H139V78.2a1.07,1.07,0,0,0-.32-.81,1.26,1.26,0,0,0-.9-.31,1.28,1.28,0,0,0-.66.23,1.56,1.56,0,0,0-.52.5v5H135V75.86h1.11l.33.61a2.27,2.27,0,0,1,1.75-.74,2.71,2.71,0,0,1,2.08.75,2.06,2.06,0,0,1,.85-.55,3.18,3.18,0,0,1,1.09-.2,2.4,2.4,0,0,1,1.8.66,2.54,2.54,0,0,1,.65,1.83V82.8Z"/><path class="cls-1" d="M146.81,82.8V77.19h-.89V75.86h2.53V82.8Zm.84-9.63a.94.94,0,0,1,.94.94,1,1,0,0,1-.94.94.94.94,0,0,1-.94-.94.92.92,0,0,1,.94-.94Z"/><path class="cls-1" d="M155.78,76.41l-.69,1.21a2.13,2.13,0,0,0-1.53-.54,1.82,1.82,0,0,0-1.45.62,2.47,2.47,0,0,0-.54,1.69c0,1.46.69,2.19,2.08,2.19a2.35,2.35,0,0,0,1.59-.6l.6,1.28a4.44,4.44,0,0,1-1.24.56,6.45,6.45,0,0,1-1.25.11,3.44,3.44,0,0,1-2.54-.93,4,4,0,0,1,.09-5.26,3.8,3.8,0,0,1,2.78-1A3.39,3.39,0,0,1,155.78,76.41Z"/><path class="cls-1" d="M157.57,82.8V77.19h-.89V75.86h2.53V82.8Zm.83-9.63a.92.92,0,0,1,.94.94.94.94,0,0,1-.94.94,1,1,0,0,1-.94-.94.94.94,0,0,1,.94-.94Z"/><path class="cls-1" d="M161.37,73.27l1.62-.39v7.81c0,.86.26,1.37.77,1.53a1.34,1.34,0,0,1-1.29.71c-.73,0-1.1-.51-1.1-1.53Z"/><path class="cls-1" d="M165.44,82.8V77.19h-.88V75.86h2.52V82.8Zm.84-9.63a.94.94,0,0,1,.94.94.94.94,0,0,1-1.88,0,.94.94,0,0,1,.94-.94Z"/><path class="cls-1" d="M172.83,82.11a1.52,1.52,0,0,1-.76.59,2.85,2.85,0,0,1-1.15.23,2.55,2.55,0,0,1-1.76-.56,2,2,0,0,1-.64-1.59,2.25,2.25,0,0,1,.9-1.89,4.23,4.23,0,0,1,2.57-.68,3.19,3.19,0,0,1,.68.1c0-.82-.52-1.23-1.55-1.23a3.47,3.47,0,0,0-1.53.31l-.35-1.26a4.5,4.5,0,0,1,2-.4,3.21,3.21,0,0,1,2.32.72,3.81,3.81,0,0,1,.74,2.74v1.49c0,.92.19,1.5.56,1.74a.84.84,0,0,1-.45.43,1.61,1.61,0,0,1-.56.08.85.85,0,0,1-.63-.26A1.33,1.33,0,0,1,172.83,82.11Zm-.15-2.57a3.34,3.34,0,0,0-.62-.09q-1.92,0-1.92,1.26,0,.93,1.08.93a1.29,1.29,0,0,0,1.46-1.46Z"/><path class="cls-1" d="M180.06,77.37a1.72,1.72,0,0,0-1-.29,1.31,1.31,0,0,0-1,.52,1.87,1.87,0,0,0-.44,1.25v4H176V75.86h1.62v.63a2.31,2.31,0,0,1,1.81-.76,2.55,2.55,0,0,1,1.27.25Z"/><path class="cls-1" d="M182.15,82.8V77.19h-.89V75.86h2.53V82.8Zm.84-9.63a.91.91,0,0,1,.66.27,1,1,0,0,1,.28.67.91.91,0,0,1-.28.66.93.93,0,0,1-1.33,0,.9.9,0,0,1-.27-.66.94.94,0,0,1,.27-.67A.92.92,0,0,1,183,73.17Z"/><path class="cls-1" d="M185.22,79.31a3.67,3.67,0,0,1,.92-2.58,3.12,3.12,0,0,1,2.42-1,3.15,3.15,0,0,1,2.46,1A4.37,4.37,0,0,1,191,82a3.54,3.54,0,0,1-4.9,0A3.83,3.83,0,0,1,185.22,79.31Zm1.69,0c0,1.53.55,2.3,1.65,2.3a1.4,1.4,0,0,0,1.2-.6,2.75,2.75,0,0,0,.45-1.7c0-1.5-.55-2.26-1.65-2.26a1.41,1.41,0,0,0-1.2.6A2.71,2.71,0,0,0,186.91,79.31Z"/><path class="cls-1" d="M192.76,82.36l.58-1.29a2.58,2.58,0,0,0,1.64.57c.63,0,1-.22,1-.67a.83.83,0,0,0-.29-.65,4.32,4.32,0,0,0-1.11-.6c-1.2-.49-1.79-1.19-1.79-2.08a1.65,1.65,0,0,1,.68-1.41,3,3,0,0,1,1.76-.5,4.38,4.38,0,0,1,2,.49l-.47,1.25a2.24,2.24,0,0,0-1.48-.45c-.57,0-.85.22-.85.67a.59.59,0,0,0,.28.48,5.37,5.37,0,0,0,1.19.58,3.09,3.09,0,0,1,1.32.87,1.92,1.92,0,0,1,.4,1.24,1.84,1.84,0,0,1-.71,1.52,3.12,3.12,0,0,1-2,.55,4.73,4.73,0,0,1-1.12-.11A6.29,6.29,0,0,1,192.76,82.36Z"/><path class="cls-2" d="M23.86,66.77l-8.44-5c-1.13-.67-6.56-3.27-11.09.35C.81,64.91.39,69.88.39,69.88l20.18,12A9,9,0,0,0,23.86,83a8.83,8.83,0,0,0,3.28-1.13l19.55-11.6V53.21Z"/><path class="cls-3" d="M27.17,22a9,9,0,0,0-3.29-1.14A8.83,8.83,0,0,0,20.6,22L3,32.5,17.28,41l6.6-3.92h0l8.44,5c1.13.67,6.56,3.27,11.09-.34C46.93,39,47.35,34,47.35,34Z"/><polygon class="cls-4" points="1.02 50.71 1.02 33.66 23.86 47.25 23.86 64.31 1.02 50.71"/><path class="cls-4" d="M23.88,18.42A9.17,9.17,0,1,1,33,9.25,9.19,9.19,0,0,1,23.88,18.42Z"/></svg>